<svg xmlns="http://www.w3.org/2000/svg" viewBox="0 0 41 19" width="41" height="19">
	<defs>
		<linearGradient id="grd1" gradientUnits="userSpaceOnUse"  x1="20.5" y1="0" x2="20.5" y2="18.415">
			<stop offset="0" stop-color="#c8aa31"  />
			<stop offset="1" stop-color="#ecd939"  />
		</linearGradient>
	</defs>
	<style>
		tspan { white-space:pre }
		.shp0 { fill: url(#grd1) } 
		.shp1 { fill: #231f1e } 
	</style>
	<g id="Layer">
		<path id="Layer" class="shp0" d="M41 17.11C41 17.83 40.42 18.41 39.7 18.41L1.3 18.41C0.58 18.41 0 17.83 0 17.11L0 1.3C0 0.58 0.58 0 1.3 0L39.7 0C40.42 0 41 0.58 41 1.3L41 17.11Z" />
		<path id="Layer" fill-rule="evenodd" class="shp1" d="M4.69 15.45L4.69 2.81L7.79 2.81L7.79 15.45L4.69 15.45ZM19.27 15.45L16.63 15.45L16.63 8.36L15.35 15.45L13.44 15.45L12.12 8.36L12.12 15.45L9.33 15.45L9.33 2.81L13.32 2.81L14.36 8.78L15.07 2.81L19.27 2.81L19.27 15.45ZM20.91 2.81L24.37 2.81C26.43 2.81 26.93 3.02 27.52 3.42C28.11 3.83 28.41 4.46 28.41 5.31L28.41 12.96C28.41 13.75 28.13 14.36 27.58 14.8C27.03 15.23 26.37 15.45 24.39 15.45L20.91 15.45L20.91 2.81ZM25.08 12.8L25.08 5.39C25.08 4.77 24.42 4.83 23.89 4.83L23.89 13.32C24.42 13.32 25.08 13.4 25.08 12.8ZM32.37 14.79C32.15 14.7 31.96 15.45 31.96 15.45L29.4 15.45L29.4 2.81L32.57 2.81L32.57 5.71C32.89 5.35 33.78 4.79 34.64 4.83C35.51 4.87 36.63 5.51 36.56 6.57L36.56 13.92C36.56 14.43 36.33 14.84 35.88 15.14C35.51 15.3 35.2 15.35 34.44 15.35C33.68 15.35 32.59 14.89 32.37 14.79ZM33.44 13.27L33.44 6.9C33.44 6.59 33.3 6.44 33.01 6.44C32.72 6.44 32.57 6.58 32.57 6.89L32.57 13.27C32.57 13.58 32.71 13.8 33.01 13.8C33.3 13.8 33.44 13.58 33.44 13.27Z" />
	</g>
</svg>